G04*
G04 #@! TF.GenerationSoftware,Altium Limited,Altium Designer,24.1.2 (44)*
G04*
G04 Layer_Physical_Order=1*
G04 Layer_Color=255*
%FSLAX44Y44*%
%MOMM*%
G71*
G04*
G04 #@! TF.SameCoordinates,CE4EC833-A4B3-435F-913A-33A71637FA1F*
G04*
G04*
G04 #@! TF.FilePolarity,Positive*
G04*
G01*
G75*
%ADD13C,0.2540*%
%ADD15R,1.0000X4.5600*%
%ADD16R,0.8500X4.5600*%
%ADD17R,0.7500X0.9000*%
%ADD18R,2.2000X2.2000*%
%ADD19R,0.9906X2.0066*%
%ADD20R,0.2032X0.7112*%
%ADD21R,0.7112X0.2032*%
%ADD22R,0.3048X0.8128*%
%ADD23R,0.8128X0.2794*%
%ADD24R,0.2794X0.8128*%
%ADD25R,0.2794X1.0160*%
%ADD26R,0.5000X0.4000*%
%ADD27R,2.5022X5.5031*%
%ADD28R,0.9200X0.7400*%
%ADD29R,4.5600X1.0000*%
%ADD30R,4.5600X0.8500*%
%ADD42C,0.1270*%
%ADD43C,0.3048*%
%ADD44C,0.5080*%
%ADD45C,0.2032*%
%ADD46C,0.1778*%
%ADD47R,1.6000X1.6000*%
%ADD48C,1.6000*%
%ADD49C,1.0000*%
%ADD50C,2.0500*%
%ADD51R,2.0500X2.0500*%
%ADD52R,1.6000X1.6000*%
%ADD53C,1.2700*%
%ADD54C,0.5080*%
G36*
X796290Y844191D02*
X796950Y844191D01*
X797560Y843173D01*
Y824748D01*
X796950Y823731D01*
X796290Y823731D01*
X786622D01*
Y844191D01*
X796290D01*
D02*
G37*
G36*
X797560Y869748D02*
X796950Y868731D01*
X796290Y868731D01*
X785315D01*
Y856461D01*
X784680D01*
Y855826D01*
X772410D01*
Y844191D01*
X782738D01*
Y823731D01*
X772410D01*
Y812096D01*
X784680D01*
Y811461D01*
X785315D01*
Y799191D01*
X796290D01*
X796950Y799191D01*
X797560Y798173D01*
Y781050D01*
X658609D01*
X658526Y782320D01*
X660512Y782581D01*
X662984Y783605D01*
X665106Y785234D01*
X666735Y787356D01*
X667758Y789828D01*
X668108Y792480D01*
X668108D01*
X668190Y793716D01*
X668383Y795678D01*
X669316Y798753D01*
X670831Y801587D01*
X672869Y804071D01*
X675353Y806110D01*
X678188Y807625D01*
X681263Y808558D01*
X684455Y808872D01*
X684461Y808871D01*
X686410D01*
Y799191D01*
X710950D01*
Y823731D01*
X701270D01*
Y844191D01*
X710950D01*
Y868731D01*
X686410D01*
Y859051D01*
X663729D01*
X663614Y859028D01*
X660241Y859472D01*
X656991Y860818D01*
X654199Y862960D01*
X653224Y864230D01*
X653392Y865072D01*
X655118Y866798D01*
X656338Y868912D01*
X656970Y871270D01*
Y873710D01*
X656338Y876068D01*
X655118Y878182D01*
X653392Y879908D01*
X651278Y881128D01*
X648920Y881760D01*
X646480D01*
X644122Y881128D01*
X642008Y879908D01*
X640282Y878182D01*
X639062Y876068D01*
X638430Y873710D01*
Y871270D01*
X639062Y868912D01*
X640282Y866798D01*
X642008Y865072D01*
X644122Y863852D01*
X644876Y863650D01*
X644709Y862380D01*
X607060D01*
X607032Y862374D01*
X604441Y862715D01*
X602000Y863726D01*
X600900Y864570D01*
X600817Y865837D01*
X601778Y866798D01*
X602998Y868912D01*
X603630Y871270D01*
Y873710D01*
X602998Y876068D01*
X601778Y878182D01*
X600052Y879908D01*
X597938Y881128D01*
X595580Y881760D01*
X593140D01*
X590782Y881128D01*
X588668Y879908D01*
X586942Y878182D01*
X585722Y876068D01*
X585090Y873710D01*
Y871270D01*
X585722Y868912D01*
X586942Y866798D01*
X588668Y865072D01*
X590782Y863852D01*
X593140Y863220D01*
X594953D01*
X596231Y861662D01*
X598552Y859757D01*
X601200Y858342D01*
X604072Y857470D01*
X607060Y857176D01*
Y857200D01*
X653089D01*
X653363Y856976D01*
X656589Y855251D01*
X660089Y854190D01*
X663729Y853831D01*
Y853871D01*
X686410D01*
Y844191D01*
X696090D01*
Y823731D01*
X686410D01*
Y814051D01*
X684461D01*
Y814105D01*
X680242Y813689D01*
X676185Y812459D01*
X672447Y810461D01*
X669170Y807771D01*
X666480Y804494D01*
X664482Y800755D01*
X663251Y796699D01*
X662836Y792480D01*
X662836D01*
X662671Y791278D01*
X662526Y790547D01*
X661431Y788909D01*
X659793Y787814D01*
X657910Y787440D01*
X657860Y787450D01*
X626110D01*
X626000Y787428D01*
X621654Y787856D01*
X617368Y789156D01*
X613419Y791267D01*
X609958Y794108D01*
X607117Y797569D01*
X605006Y801518D01*
X603706Y805804D01*
X603391Y809001D01*
X604288Y809242D01*
X606402Y810462D01*
X608128Y812188D01*
X609348Y814302D01*
X609980Y816660D01*
Y819100D01*
X609348Y821458D01*
X608128Y823572D01*
X606402Y825298D01*
X604288Y826518D01*
X601930Y827150D01*
X599490D01*
X597132Y826518D01*
X595018Y825298D01*
X593292Y823572D01*
X592072Y821458D01*
X591440Y819100D01*
Y816660D01*
X592072Y814302D01*
X593292Y812188D01*
X595018Y810462D01*
X597132Y809242D01*
X598186Y808959D01*
X598429Y805876D01*
X599455Y801599D01*
X601138Y797536D01*
X603436Y793786D01*
X606292Y790442D01*
X609636Y787586D01*
X613386Y785288D01*
X617449Y783605D01*
X621726Y782579D01*
X625012Y782320D01*
X624963Y781050D01*
X565150D01*
Y1130300D01*
X797560D01*
Y869748D01*
D02*
G37*
%LPC*%
G36*
X717715Y1125160D02*
X712080D01*
Y1101725D01*
X717715D01*
Y1125160D01*
D02*
G37*
G36*
X672220D02*
X666585D01*
Y1101725D01*
X672220D01*
Y1125160D01*
D02*
G37*
G36*
X717715Y1100455D02*
X712080D01*
Y1077020D01*
X717715D01*
Y1100455D01*
D02*
G37*
G36*
X672220D02*
X666585D01*
Y1077020D01*
X672220D01*
Y1100455D01*
D02*
G37*
G36*
X665315Y1125160D02*
X659680D01*
Y1104122D01*
X659130Y1103079D01*
X654845Y1102742D01*
X650666Y1101739D01*
X646695Y1100094D01*
X643031Y1097849D01*
X639763Y1095057D01*
X636972Y1091789D01*
X634726Y1088124D01*
X633081Y1084154D01*
X632078Y1079975D01*
X631741Y1075690D01*
X631788D01*
Y1026136D01*
X629283Y1025465D01*
X626657Y1023948D01*
X624512Y1021803D01*
X622995Y1019176D01*
X622498Y1017320D01*
X594162D01*
X593665Y1019176D01*
X592148Y1021803D01*
X590003Y1023948D01*
X587377Y1025465D01*
X584447Y1026250D01*
X583565D01*
Y1014730D01*
X582930D01*
Y1014095D01*
X571410D01*
Y1013213D01*
X572195Y1010284D01*
X573712Y1007657D01*
X575857Y1005512D01*
X578484Y1003995D01*
X580340Y1003498D01*
Y975162D01*
X578484Y974665D01*
X575857Y973148D01*
X573712Y971003D01*
X572195Y968376D01*
X571410Y965447D01*
Y964565D01*
X582930D01*
Y963930D01*
X583565D01*
Y952410D01*
X584447D01*
X587377Y953195D01*
X590003Y954712D01*
X592148Y956857D01*
X593665Y959483D01*
X594162Y961340D01*
X622498D01*
X622995Y959483D01*
X624512Y956857D01*
X626657Y954712D01*
X629283Y953195D01*
X632213Y952410D01*
X633095D01*
Y963930D01*
Y975450D01*
X632213D01*
X629283Y974665D01*
X626657Y973148D01*
X624512Y971003D01*
X622995Y968376D01*
X622498Y966520D01*
X594162D01*
X593665Y968376D01*
X592148Y971003D01*
X590003Y973148D01*
X587377Y974665D01*
X585520Y975162D01*
Y1003498D01*
X587377Y1003995D01*
X590003Y1005512D01*
X592148Y1007657D01*
X593665Y1010284D01*
X594162Y1012140D01*
X622498D01*
X622995Y1010284D01*
X624512Y1007657D01*
X626657Y1005512D01*
X629283Y1003995D01*
X632213Y1003210D01*
X633095D01*
Y1014730D01*
X633730D01*
Y1015365D01*
X645250D01*
Y1016247D01*
X644465Y1019176D01*
X642948Y1021803D01*
X640803Y1023948D01*
X638176Y1025465D01*
X635672Y1026136D01*
Y1075690D01*
X635657Y1075769D01*
X636100Y1080271D01*
X637436Y1084676D01*
X639606Y1088735D01*
X642526Y1092294D01*
X646085Y1095214D01*
X650144Y1097384D01*
X654549Y1098720D01*
X658410Y1099100D01*
X659680Y1098169D01*
Y1077020D01*
X665315D01*
Y1101090D01*
Y1125160D01*
D02*
G37*
G36*
X724620D02*
X718985D01*
Y1101090D01*
Y1077020D01*
X724620D01*
Y1099148D01*
X745490D01*
X745569Y1099163D01*
X750071Y1098720D01*
X754476Y1097384D01*
X758535Y1095214D01*
X762094Y1092294D01*
X765014Y1088735D01*
X767184Y1084676D01*
X768520Y1080271D01*
X768963Y1075769D01*
X768948Y1075690D01*
Y1021800D01*
X746820D01*
Y1017472D01*
X722160D01*
Y1017524D01*
X719465Y1017169D01*
X716953Y1016129D01*
X715780Y1015229D01*
X714310Y1015702D01*
X714235Y1015950D01*
X712696Y1018828D01*
Y1025082D01*
X712744D01*
X712406Y1027651D01*
X711414Y1030045D01*
X709837Y1032101D01*
X707781Y1033678D01*
X707644Y1033735D01*
Y1035304D01*
X707644D01*
Y1035812D01*
X707644D01*
Y1037463D01*
X702818D01*
Y1038733D01*
X707644D01*
Y1040384D01*
X707644D01*
Y1040892D01*
X707644D01*
Y1042543D01*
X702818D01*
Y1043813D01*
X707644D01*
Y1045464D01*
X707644D01*
Y1045972D01*
X707644D01*
Y1047623D01*
X702818D01*
Y1048893D01*
X707644D01*
Y1050544D01*
X707644D01*
Y1051052D01*
X707644D01*
Y1052703D01*
X702818D01*
Y1053973D01*
X707644D01*
Y1055624D01*
X704498D01*
X704497Y1055626D01*
X703615Y1057757D01*
X702210Y1059588D01*
X700379Y1060993D01*
X698248Y1061875D01*
X698246Y1061876D01*
Y1065022D01*
X696595D01*
Y1060196D01*
X695325D01*
Y1065022D01*
X693674D01*
X693211Y1066100D01*
Y1070796D01*
X693273Y1070889D01*
X693398Y1071520D01*
X693627Y1071673D01*
X694469Y1072933D01*
X694765Y1074420D01*
Y1077020D01*
X697670D01*
Y1125160D01*
X686630D01*
Y1077020D01*
X686995D01*
Y1074420D01*
X687291Y1072933D01*
X688133Y1071673D01*
X688362Y1071520D01*
X688487Y1070889D01*
X688549Y1070796D01*
Y1066100D01*
X688086Y1065022D01*
X687279Y1065022D01*
X686435D01*
Y1060196D01*
X685165D01*
Y1065022D01*
X683514D01*
Y1061876D01*
X683512Y1061875D01*
X681381Y1060993D01*
X679550Y1059588D01*
X678146Y1057757D01*
X677263Y1055626D01*
X677262Y1055624D01*
X674116D01*
Y1053973D01*
X678942D01*
Y1052703D01*
X674116D01*
Y1051814D01*
X674116Y1051052D01*
X673199Y1050200D01*
X667337D01*
X667258Y1050246D01*
Y1050285D01*
X667208Y1050275D01*
X665881Y1051041D01*
X663943Y1051560D01*
X661937D01*
X659999Y1051041D01*
X658261Y1050038D01*
X656842Y1048619D01*
X655839Y1046881D01*
X655320Y1044943D01*
Y1042937D01*
X655839Y1040999D01*
X656842Y1039261D01*
X658261Y1037842D01*
X659999Y1036839D01*
X661937Y1036320D01*
X663943D01*
X665760Y1036807D01*
X666760Y1036392D01*
X668782Y1036126D01*
Y1036156D01*
X673199D01*
X674116Y1035304D01*
X674116Y1034542D01*
Y1033772D01*
X673754Y1033622D01*
X671605Y1031973D01*
X669956Y1029824D01*
X668920Y1027321D01*
X668566Y1024636D01*
X668618D01*
Y1019205D01*
X668292Y1018808D01*
X666346Y1015168D01*
X665148Y1011218D01*
X664744Y1007110D01*
X664808D01*
X664956Y1006367D01*
X665377Y1005737D01*
X666007Y1005315D01*
X666750Y1005168D01*
X667178Y1004523D01*
X667291Y1003300D01*
X667291D01*
X667665Y1000461D01*
X668761Y997816D01*
X670503Y995545D01*
X672775Y993802D01*
X675420Y992706D01*
X675108Y991531D01*
X657820D01*
Y992600D01*
X650280D01*
Y991920D01*
X619850D01*
Y1000850D01*
X596810D01*
Y977810D01*
X619850D01*
Y986740D01*
X650280D01*
Y986060D01*
X657820D01*
Y987129D01*
X676021D01*
Y984966D01*
X675591Y984788D01*
X673203Y982956D01*
X671371Y980568D01*
X670219Y977788D01*
X669826Y974804D01*
X669888D01*
Y972820D01*
X670035Y972077D01*
X670457Y971447D01*
X671087Y971025D01*
X671830Y970878D01*
X672573Y971025D01*
X673203Y971447D01*
X673624Y972077D01*
X673772Y972820D01*
Y974804D01*
X673797D01*
X674055Y976760D01*
X674810Y978583D01*
X676011Y980148D01*
X677576Y981349D01*
X678332Y981662D01*
X680720D01*
Y984329D01*
X681355D01*
Y984964D01*
X686689D01*
Y986663D01*
Y993696D01*
X681355D01*
Y994331D01*
X680720D01*
Y996998D01*
X676021D01*
Y996998D01*
X675763Y996826D01*
X674760Y997241D01*
X673311Y998353D01*
X672199Y999802D01*
X671500Y1001489D01*
X671262Y1003300D01*
X671232D01*
X671085Y1004043D01*
X670663Y1004673D01*
X670033Y1005095D01*
X669665Y1005168D01*
X669790Y1006438D01*
X681307D01*
Y1006398D01*
X682298Y1006201D01*
X683138Y1005639D01*
X683212Y1005529D01*
Y1004443D01*
X685244D01*
Y1009142D01*
X684982D01*
X683834Y1009909D01*
X681307Y1010412D01*
Y1010322D01*
X670318D01*
X669376Y1011592D01*
X670001Y1013654D01*
X671582Y1016610D01*
X672173Y1017331D01*
X673708Y1019202D01*
X676300Y1021328D01*
X679256Y1022909D01*
X682244Y1023815D01*
X683093Y1023421D01*
X683514Y1023040D01*
Y1021334D01*
X685165D01*
Y1026160D01*
X686435D01*
Y1021334D01*
X688086D01*
X688938Y1020417D01*
Y1009142D01*
X686514D01*
Y1003808D01*
Y998474D01*
X693214D01*
Y996442D01*
X695071D01*
Y994664D01*
X693539D01*
Y989330D01*
Y983996D01*
X695071D01*
Y981662D01*
X699770D01*
Y984329D01*
X701040D01*
Y981662D01*
X705649D01*
X707010Y981098D01*
X708990Y979579D01*
X710509Y977599D01*
X711464Y975294D01*
X711790Y972820D01*
X711798D01*
X711945Y972077D01*
X712367Y971447D01*
X712997Y971025D01*
X713205Y970984D01*
X713391Y970636D01*
X713009Y967740D01*
X713049D01*
X713068Y967597D01*
Y957930D01*
X712276Y957000D01*
X708945D01*
Y951230D01*
Y945460D01*
X713330D01*
Y950936D01*
X714447Y951793D01*
X715826Y953590D01*
X716693Y955684D01*
X716989Y957930D01*
X716952D01*
Y960596D01*
X718222Y961353D01*
X719620Y961169D01*
Y961188D01*
X746820D01*
Y956860D01*
X768948D01*
Y932161D01*
X768959Y932103D01*
X768539Y927833D01*
X767276Y923671D01*
X765226Y919835D01*
X762467Y916473D01*
X761708Y915851D01*
X760560Y916394D01*
Y936836D01*
X747414D01*
Y908685D01*
X760560D01*
Y910028D01*
X761303Y910425D01*
X765264Y913676D01*
X768515Y917637D01*
X770931Y922157D01*
X772419Y927061D01*
X772921Y932161D01*
X772832D01*
Y956860D01*
X794960D01*
Y962495D01*
X770890D01*
Y963130D01*
X770255D01*
Y969400D01*
X746820D01*
Y965072D01*
X719620D01*
Y965111D01*
X718614Y965312D01*
X717761Y965881D01*
X717287Y966592D01*
X716992Y967740D01*
D01*
X717135Y968913D01*
X717226Y969609D01*
X717947Y971350D01*
X719095Y972845D01*
X720590Y973992D01*
X722331Y974714D01*
X724200Y974960D01*
Y974988D01*
X729460D01*
Y971960D01*
X734695D01*
Y976930D01*
Y981900D01*
X729460D01*
Y978872D01*
X724200D01*
Y978931D01*
X721304Y978549D01*
X718605Y977431D01*
X716634Y975919D01*
X715485Y976244D01*
X715265Y976407D01*
X713948Y979585D01*
X711798Y982387D01*
X708996Y984537D01*
X705739Y985886D01*
Y987388D01*
X729460D01*
Y984360D01*
X741200D01*
Y987388D01*
X746820D01*
Y983810D01*
X794960D01*
Y994850D01*
X746820D01*
Y991272D01*
X741200D01*
Y994300D01*
X729460D01*
Y991272D01*
X706449D01*
X706366Y992542D01*
X707610Y992706D01*
X710255Y993802D01*
X712526Y995545D01*
X714269Y997816D01*
X715365Y1000461D01*
X715739Y1003300D01*
X715682D01*
X715535Y1004043D01*
X715113Y1004673D01*
Y1005737D01*
X715535Y1006367D01*
X715682Y1007110D01*
Y1007288D01*
X716143Y1009603D01*
X717554Y1011715D01*
X719668Y1013127D01*
X722071Y1013605D01*
X722160Y1013588D01*
X746820D01*
Y1009260D01*
X770255D01*
Y1015530D01*
X770890D01*
Y1016165D01*
X794960D01*
Y1021800D01*
X772832D01*
Y1075690D01*
X772879D01*
X772542Y1079975D01*
X771539Y1084154D01*
X769894Y1088124D01*
X767648Y1091789D01*
X764857Y1095057D01*
X761589Y1097849D01*
X757924Y1100094D01*
X753954Y1101739D01*
X749775Y1102742D01*
X745490Y1103079D01*
Y1103032D01*
X724620D01*
Y1125160D01*
D02*
G37*
G36*
X582295Y1026250D02*
X581413D01*
X578484Y1025465D01*
X575857Y1023948D01*
X573712Y1021803D01*
X572195Y1019176D01*
X571410Y1016247D01*
Y1015365D01*
X582295D01*
Y1026250D01*
D02*
G37*
G36*
X794960Y1014895D02*
X771525D01*
Y1009260D01*
X794960D01*
Y1014895D01*
D02*
G37*
G36*
X645250Y1014095D02*
X634365D01*
Y1003210D01*
X635247D01*
X638176Y1003995D01*
X640803Y1005512D01*
X642948Y1007657D01*
X644465Y1010284D01*
X645250Y1013213D01*
Y1014095D01*
D02*
G37*
G36*
X685244Y1003173D02*
X683212D01*
Y998474D01*
X685244D01*
Y1003173D01*
D02*
G37*
G36*
X686689Y996998D02*
X681990D01*
Y994966D01*
X686689D01*
Y996998D01*
D02*
G37*
G36*
X692269Y994664D02*
X690110D01*
Y989965D01*
X692269D01*
Y994664D01*
D02*
G37*
G36*
Y988695D02*
X690110D01*
Y983996D01*
X692269D01*
Y988695D01*
D02*
G37*
G36*
X657820Y984600D02*
X654685D01*
Y981965D01*
X657820D01*
Y984600D01*
D02*
G37*
G36*
X653415D02*
X650280D01*
Y981965D01*
X653415D01*
Y984600D01*
D02*
G37*
G36*
X686689Y983694D02*
X681990D01*
Y981662D01*
X686689D01*
Y983694D01*
D02*
G37*
G36*
X741200Y981900D02*
X735965D01*
Y977565D01*
X741200D01*
Y981900D01*
D02*
G37*
G36*
X657820Y980695D02*
X654050D01*
X650280D01*
Y978060D01*
X651460D01*
Y974140D01*
X641350D01*
Y974178D01*
X639453Y973928D01*
X638176Y974665D01*
X635247Y975450D01*
X634365D01*
Y964565D01*
X645250D01*
Y965447D01*
X644649Y967690D01*
X645496Y968960D01*
X654050D01*
X655041Y969157D01*
X655881Y969719D01*
X656443Y970559D01*
X656640Y971550D01*
Y978060D01*
X657820D01*
Y980695D01*
D02*
G37*
G36*
X741200Y976295D02*
X735965D01*
Y971960D01*
X741200D01*
Y976295D01*
D02*
G37*
G36*
X794960Y969400D02*
X771525D01*
Y963765D01*
X794960D01*
Y969400D01*
D02*
G37*
G36*
X645250Y963295D02*
X634365D01*
Y952410D01*
X635247D01*
X638176Y953195D01*
X640803Y954712D01*
X642948Y956857D01*
X644465Y959483D01*
X645250Y962413D01*
Y963295D01*
D02*
G37*
G36*
X582295D02*
X571410D01*
Y962413D01*
X572195Y959483D01*
X573712Y956857D01*
X575857Y954712D01*
X578484Y953195D01*
X581413Y952410D01*
X582295D01*
Y963295D01*
D02*
G37*
G36*
X707675Y957000D02*
X703290D01*
Y951865D01*
X707675D01*
Y957000D01*
D02*
G37*
G36*
Y950595D02*
X703290D01*
Y945460D01*
X707675D01*
Y950595D01*
D02*
G37*
G36*
X656970Y932560D02*
X648335D01*
Y923925D01*
X656970D01*
Y932560D01*
D02*
G37*
G36*
X603630D02*
X594995D01*
Y923925D01*
X603630D01*
Y932560D01*
D02*
G37*
G36*
X647065D02*
X638430D01*
Y923925D01*
X647065D01*
Y932560D01*
D02*
G37*
G36*
X593725D02*
X585090D01*
Y923925D01*
X593725D01*
Y932560D01*
D02*
G37*
G36*
X656970Y922655D02*
X648335D01*
Y914020D01*
X656970D01*
Y922655D01*
D02*
G37*
G36*
X647065D02*
X638430D01*
Y914020D01*
X647065D01*
Y922655D01*
D02*
G37*
G36*
X603630D02*
X594995D01*
Y914020D01*
X603630D01*
Y922655D01*
D02*
G37*
G36*
X593725D02*
X585090D01*
Y914020D01*
X593725D01*
Y922655D01*
D02*
G37*
G36*
X746144Y936836D02*
X732998D01*
Y908685D01*
X746144D01*
Y936836D01*
D02*
G37*
G36*
X698548Y980186D02*
X683212D01*
Y969518D01*
X683212D01*
X683962Y968559D01*
X684227Y967228D01*
X685192Y965783D01*
X686398Y964978D01*
Y956310D01*
X686393D01*
X686058Y954625D01*
X685103Y953197D01*
X683675Y952243D01*
X681990Y951907D01*
Y951902D01*
X642620D01*
Y951948D01*
X639259Y951617D01*
X636027Y950637D01*
X633049Y949044D01*
X630438Y946902D01*
X628296Y944291D01*
X626703Y941313D01*
X625723Y938081D01*
X625392Y934720D01*
X625438D01*
Y923290D01*
X625453Y923211D01*
X625010Y918709D01*
X623674Y914304D01*
X621504Y910245D01*
X618584Y906686D01*
X615025Y903766D01*
X610966Y901596D01*
X606561Y900260D01*
X603405Y899949D01*
X602998Y901468D01*
X601778Y903582D01*
X600052Y905308D01*
X597938Y906528D01*
X595580Y907160D01*
X593140D01*
X590782Y906528D01*
X588668Y905308D01*
X586942Y903582D01*
X585722Y901468D01*
X585090Y899110D01*
Y896670D01*
X585722Y894312D01*
X586942Y892198D01*
X588668Y890472D01*
X590782Y889252D01*
X593140Y888620D01*
X595580D01*
X597938Y889252D01*
X600052Y890472D01*
X601778Y892198D01*
X602998Y894312D01*
X603455Y896017D01*
X606265Y896238D01*
X610444Y897241D01*
X614414Y898886D01*
X618079Y901132D01*
X621347Y903923D01*
X624138Y907191D01*
X626384Y910855D01*
X628029Y914826D01*
X629032Y919005D01*
X629369Y923290D01*
X629322D01*
Y934720D01*
X629308Y934793D01*
X629752Y938168D01*
X631083Y941381D01*
X633200Y944140D01*
X635959Y946257D01*
X639172Y947588D01*
X642546Y948032D01*
X642620Y948018D01*
X681990D01*
Y947984D01*
X684145Y948268D01*
X686153Y949099D01*
X687878Y950423D01*
X689201Y952147D01*
X690033Y954155D01*
X691290Y953986D01*
Y945460D01*
X693461D01*
Y936836D01*
X685989D01*
Y900739D01*
X656534D01*
X656338Y901468D01*
X655118Y903582D01*
X653392Y905308D01*
X651278Y906528D01*
X648920Y907160D01*
X646480D01*
X644122Y906528D01*
X642008Y905308D01*
X640282Y903582D01*
X639062Y901468D01*
X638430Y899110D01*
Y896670D01*
X639062Y894312D01*
X640282Y892198D01*
X642008Y890472D01*
X644122Y889252D01*
X646480Y888620D01*
X648920D01*
X651278Y889252D01*
X653392Y890472D01*
X655118Y892198D01*
X656338Y894312D01*
X656534Y895041D01*
X685989D01*
Y879264D01*
X713551D01*
Y936836D01*
X699159D01*
Y945460D01*
X701330D01*
Y957000D01*
X699159D01*
Y974423D01*
X699167D01*
X698917Y975681D01*
X698548Y976233D01*
Y980186D01*
D02*
G37*
G36*
X760560Y907415D02*
X747414D01*
Y879264D01*
X760560D01*
Y907415D01*
D02*
G37*
G36*
X746144D02*
X732998D01*
Y879264D01*
X746144D01*
Y907415D01*
D02*
G37*
G36*
X784045Y868731D02*
X772410D01*
Y857096D01*
X784045D01*
Y868731D01*
D02*
G37*
G36*
X742667Y848961D02*
X740693D01*
X738785Y848450D01*
X737075Y847462D01*
X735678Y846066D01*
X734691Y844356D01*
X734180Y842448D01*
Y840473D01*
X734691Y838566D01*
X735678Y836856D01*
X737075Y835459D01*
X738785Y834472D01*
X740693Y833961D01*
X742667D01*
X744575Y834472D01*
X746285Y835459D01*
X747682Y836856D01*
X748669Y838566D01*
X749180Y840473D01*
Y842448D01*
X748669Y844356D01*
X747682Y846066D01*
X746285Y847462D01*
X744575Y848450D01*
X742667Y848961D01*
D02*
G37*
G36*
X660780Y827150D02*
X652145D01*
Y818515D01*
X660780D01*
Y827150D01*
D02*
G37*
G36*
X650875D02*
X642240D01*
Y818515D01*
X650875D01*
Y827150D01*
D02*
G37*
G36*
X660780Y817245D02*
X652145D01*
Y808610D01*
X660780D01*
Y817245D01*
D02*
G37*
G36*
X650875D02*
X642240D01*
Y808610D01*
X650875D01*
Y817245D01*
D02*
G37*
G36*
X627330Y827150D02*
X624890D01*
X622532Y826518D01*
X620418Y825298D01*
X618692Y823572D01*
X617472Y821458D01*
X616840Y819100D01*
Y816660D01*
X617472Y814302D01*
X618692Y812188D01*
X620418Y810462D01*
X622532Y809242D01*
X624890Y808610D01*
X627330D01*
X629688Y809242D01*
X631802Y810462D01*
X633528Y812188D01*
X634748Y814302D01*
X635380Y816660D01*
Y819100D01*
X634748Y821458D01*
X633528Y823572D01*
X631802Y825298D01*
X629688Y826518D01*
X627330Y827150D01*
D02*
G37*
G36*
X784045Y810826D02*
X772410D01*
Y799191D01*
X784045D01*
Y810826D01*
D02*
G37*
G36*
X742667Y798961D02*
X740693D01*
X738785Y798450D01*
X737075Y797462D01*
X735678Y796066D01*
X734691Y794356D01*
X734180Y792448D01*
Y790473D01*
X734691Y788566D01*
X735678Y786856D01*
X737075Y785459D01*
X738785Y784472D01*
X740693Y783961D01*
X742667D01*
X744575Y784472D01*
X746285Y785459D01*
X747682Y786856D01*
X748669Y788566D01*
X749180Y790473D01*
Y792448D01*
X748669Y794356D01*
X747682Y796066D01*
X746285Y797462D01*
X744575Y798450D01*
X742667Y798961D01*
D02*
G37*
%LPD*%
G36*
X696595Y1021334D02*
X698246D01*
Y1023040D01*
X699516Y1023758D01*
X702016Y1023000D01*
X704751Y1021537D01*
X707149Y1019569D01*
X709117Y1017171D01*
X710580Y1014436D01*
X711480Y1011467D01*
X711625Y1009993D01*
X710772Y1009052D01*
X700199D01*
Y1009137D01*
X698875Y1008874D01*
X698548Y1009142D01*
Y1009142D01*
X696516D01*
Y1002792D01*
X695246D01*
Y1009142D01*
X692822D01*
Y1020417D01*
X693674Y1021334D01*
X695325D01*
Y1026160D01*
X696595D01*
Y1021334D01*
D02*
G37*
D13*
X594360Y872490D02*
G03*
X607060Y859790I12700J0D01*
G01*
X653949D02*
G03*
X663729Y856461I9780J12700D01*
G01*
X647700Y872490D02*
G03*
X653949Y859790I16029J0D01*
G01*
X600710Y810260D02*
G03*
X626110Y784860I25400J0D01*
G01*
X657860D02*
G03*
X665480Y792480I0J7620D01*
G01*
X684461Y811461D02*
G03*
X665480Y792480I0J-18981D01*
G01*
X641350Y971550D02*
G03*
X633730Y963930I0J-7620D01*
G01*
X690880Y1071880D02*
Y1074420D01*
X653949Y859790D02*
X654050D01*
X607060D02*
X653949D01*
X663729Y856461D02*
X698680D01*
X600710Y810260D02*
Y817880D01*
X626110Y784860D02*
X657860D01*
X684461Y811461D02*
X698680D01*
Y856461D01*
X582930Y963930D02*
X633730D01*
X641350Y971550D02*
X654050D01*
X608330Y989330D02*
X654050D01*
X582930Y963930D02*
Y1014730D01*
X633730D01*
X654050Y971550D02*
Y981330D01*
D15*
X718350Y1101090D02*
D03*
X665950D02*
D03*
D16*
X692150D02*
D03*
D17*
X708310Y951230D02*
D03*
X696310D02*
D03*
D18*
X784680Y856461D02*
D03*
X698680D02*
D03*
Y811461D02*
D03*
X784680D02*
D03*
D19*
X690880Y1043178D02*
D03*
D20*
X685800Y1060196D02*
D03*
X690880D02*
D03*
X695960D02*
D03*
Y1026160D02*
D03*
X690880D02*
D03*
X685800D02*
D03*
D21*
X702818Y1053338D02*
D03*
Y1048258D02*
D03*
Y1043178D02*
D03*
Y1038098D02*
D03*
Y1033018D02*
D03*
X678942D02*
D03*
Y1038098D02*
D03*
Y1043178D02*
D03*
Y1048258D02*
D03*
Y1053338D02*
D03*
D22*
X692904Y989330D02*
D03*
D23*
X700405Y994331D02*
D03*
Y989330D02*
D03*
Y984329D02*
D03*
X681355D02*
D03*
Y989330D02*
D03*
Y994331D02*
D03*
D24*
X695881Y974852D02*
D03*
X690880D02*
D03*
X685879D02*
D03*
Y1003808D02*
D03*
X690880D02*
D03*
D25*
X695881Y1002792D02*
D03*
D26*
X654050Y981330D02*
D03*
Y989330D02*
D03*
D27*
X746779Y908050D02*
D03*
X699770D02*
D03*
D28*
X735330Y989330D02*
D03*
Y976930D02*
D03*
D29*
X770890Y963130D02*
D03*
Y1015530D02*
D03*
D30*
Y989330D02*
D03*
D42*
X659130Y1101090D02*
G03*
X633730Y1075690I0J-25400D01*
G01*
X770890D02*
G03*
X745490Y1101090I-25400J0D01*
G01*
X667258Y1048258D02*
G03*
X662940Y1043940I0J-4318D01*
G01*
D02*
G03*
X668782Y1038098I5842J0D01*
G01*
X685879Y968931D02*
G03*
X688340Y966470I2461J0D01*
G01*
D02*
G03*
X690880Y969010I0J2540D01*
G01*
X681990Y949960D02*
G03*
X688340Y956310I0J6350D01*
G01*
X642620Y949960D02*
G03*
X627380Y934720I0J-15240D01*
G01*
X601980Y897890D02*
G03*
X627380Y923290I0J25400D01*
G01*
X713740Y1008380D02*
G03*
X710754Y1018243I-17780J0D01*
G01*
X722160Y1015530D02*
G03*
X713740Y1007110I0J-8420D01*
G01*
X724200Y976930D02*
G03*
X715010Y967740I0J-9190D01*
G01*
D02*
G03*
X719620Y963130I4610J0D01*
G01*
X746779Y908050D02*
G03*
X770890Y932161I0J24111D01*
G01*
X708310Y951230D02*
G03*
X715010Y957930I0J6700D01*
G01*
X713740Y972820D02*
G03*
X702231Y984329I-11509J0D01*
G01*
X685800Y1060196D02*
G03*
X678942Y1053338I0J-6858D01*
G01*
X702818D02*
G03*
X695960Y1060196I-6858J0D01*
G01*
X710754Y1025082D02*
G03*
X702818Y1033018I-7936J0D01*
G01*
X670560Y1018540D02*
G03*
X666750Y1007110I15240J-11430D01*
G01*
X685800Y1026160D02*
G03*
X670560Y1018540I0J-19050D01*
G01*
X678942Y1033018D02*
G03*
X670560Y1024636I0J-8382D01*
G01*
X710754Y1018243D02*
G03*
X695960Y1026160I-14794J-9863D01*
G01*
X700199Y1007110D02*
G03*
X695881Y1002792I0J-4318D01*
G01*
X685879Y1003808D02*
G03*
X681307Y1008380I-4572J0D01*
G01*
X681355Y984329D02*
G03*
X671830Y974804I0J-9525D01*
G01*
X704771Y994331D02*
G03*
X713740Y1003300I0J8969D01*
G01*
X669290D02*
G03*
X678259Y994331I8969J0D01*
G01*
X718350Y1101090D02*
X745490D01*
X659130D02*
X665950D01*
X633730Y1014730D02*
Y1075690D01*
X770890Y1015530D02*
Y1075690D01*
X722160Y1015530D02*
X770890D01*
X667258Y1048258D02*
X678942D01*
X668782Y1038098D02*
X678942D01*
X688340Y956310D02*
Y966470D01*
X690880Y969010D02*
Y974852D01*
X685879Y968931D02*
Y974852D01*
X642620Y949960D02*
X681990D01*
X627380Y923290D02*
Y934720D01*
X594360Y897890D02*
X601980D01*
X700199Y1007110D02*
X713740D01*
Y1008380D01*
X715010Y957930D02*
Y967740D01*
X719620Y963130D02*
X770890D01*
Y932161D02*
Y963130D01*
X784680Y811461D02*
Y856461D01*
X724200Y976930D02*
X735330D01*
X700405Y989330D02*
X735330D01*
X770890D01*
X678942Y1043178D02*
X690880D01*
X702818D01*
Y1048258D02*
Y1053338D01*
Y1033018D02*
Y1038098D01*
Y1043178D01*
Y1048258D01*
X670560Y1018540D02*
Y1024636D01*
X710754Y1018243D02*
Y1025082D01*
X669290Y1008380D02*
X681307D01*
X690880Y1003808D02*
Y1026160D01*
X700405Y984329D02*
X702231D01*
X671830Y972820D02*
Y974804D01*
X700405Y994331D02*
X704771D01*
X678259D02*
X681355D01*
D43*
X696310Y974423D02*
G03*
X695881Y974852I-429J0D01*
G01*
X689610Y897890D02*
G03*
X699770Y908050I0J10160D01*
G01*
X696310Y911510D02*
G03*
X699770Y908050I3460J0D01*
G01*
X696310Y911510D02*
Y951230D01*
Y974423D01*
X647700Y897890D02*
X689610D01*
D44*
X690880Y1074420D02*
Y1083310D01*
D45*
Y1060196D02*
Y1071880D01*
D46*
X654050Y989330D02*
X681355D01*
D47*
X647700Y923290D02*
D03*
X594360D02*
D03*
D48*
X647700Y897890D02*
D03*
Y872490D02*
D03*
X626110Y817880D02*
D03*
X600710D02*
D03*
X594360Y897890D02*
D03*
Y872490D02*
D03*
D49*
X741680Y841461D02*
D03*
Y791461D02*
D03*
D50*
X633730Y1014730D02*
D03*
Y963930D02*
D03*
X582930D02*
D03*
Y1014730D02*
D03*
D51*
X608330Y989330D02*
D03*
D52*
X651510Y817880D02*
D03*
D53*
X662940Y1043940D02*
D03*
X647700Y923290D02*
D03*
X594360D02*
D03*
X669290Y967740D02*
D03*
X715010D02*
D03*
X713740Y1007110D02*
D03*
X666750D02*
D03*
D54*
X690880Y989330D02*
D03*
M02*
