G04*
G04 #@! TF.GenerationSoftware,Altium Limited,Altium Designer,24.1.2 (44)*
G04*
G04 Layer_Color=8388736*
%FSLAX44Y44*%
%MOMM*%
G71*
G04*
G04 #@! TF.SameCoordinates,CE4EC833-A4B3-435F-913A-33A71637FA1F*
G04*
G04*
G04 #@! TF.FilePolarity,Negative*
G04*
G01*
G75*
%ADD15R,1.0000X4.5600*%
%ADD16R,0.8500X4.5600*%
%ADD17R,0.7500X0.9000*%
%ADD19R,0.9906X2.0066*%
%ADD20R,0.2032X0.7112*%
%ADD21R,0.7112X0.2032*%
%ADD22R,0.3048X0.8128*%
%ADD23R,0.8128X0.2794*%
%ADD24R,0.2794X0.8128*%
%ADD25R,0.2794X1.0160*%
%ADD26R,0.5000X0.4000*%
%ADD27R,2.5022X5.5031*%
%ADD29R,4.5600X1.0000*%
%ADD30R,4.5600X0.8500*%
%ADD31R,23.2410X34.9250*%
%ADD32R,2.3500X2.3500*%
%ADD33R,1.0700X0.8900*%
%ADD34R,1.7500X1.7500*%
%ADD35C,1.7500*%
%ADD36C,1.1500*%
%ADD37C,2.2000*%
%ADD38R,2.2000X2.2000*%
%ADD39R,1.7500X1.7500*%
%ADD40C,1.4200*%
%ADD41C,0.6580*%
D15*
X718350Y1101090D02*
D03*
X665950D02*
D03*
D16*
X692150D02*
D03*
D17*
X708310Y951230D02*
D03*
X696310D02*
D03*
D19*
X690880Y1043178D02*
D03*
D20*
X685800Y1060196D02*
D03*
X690880D02*
D03*
X695960D02*
D03*
Y1026160D02*
D03*
X690880D02*
D03*
X685800D02*
D03*
D21*
X702818Y1053338D02*
D03*
Y1048258D02*
D03*
Y1043178D02*
D03*
Y1038098D02*
D03*
Y1033018D02*
D03*
X678942D02*
D03*
Y1038098D02*
D03*
Y1043178D02*
D03*
Y1048258D02*
D03*
Y1053338D02*
D03*
D22*
X692904Y989330D02*
D03*
D23*
X700405Y994331D02*
D03*
Y989330D02*
D03*
Y984329D02*
D03*
X681355D02*
D03*
Y989330D02*
D03*
Y994331D02*
D03*
D24*
X695881Y974852D02*
D03*
X690880D02*
D03*
X685879D02*
D03*
Y1003808D02*
D03*
X690880D02*
D03*
D25*
X695881Y1002792D02*
D03*
D26*
X654050Y981330D02*
D03*
Y989330D02*
D03*
D27*
X746779Y908050D02*
D03*
X699770D02*
D03*
D29*
X770890Y963130D02*
D03*
Y1015530D02*
D03*
D30*
Y989330D02*
D03*
D31*
X681355Y955675D02*
D03*
D32*
X784680Y856461D02*
D03*
X698680D02*
D03*
Y811461D02*
D03*
X784680D02*
D03*
D33*
X735330Y989330D02*
D03*
Y976930D02*
D03*
D34*
X647700Y923290D02*
D03*
X594360D02*
D03*
D35*
X647700Y897890D02*
D03*
Y872490D02*
D03*
X626110Y817880D02*
D03*
X600710D02*
D03*
X594360Y897890D02*
D03*
Y872490D02*
D03*
D36*
X741680Y841461D02*
D03*
Y791461D02*
D03*
D37*
X633730Y1014730D02*
D03*
Y963930D02*
D03*
X582930D02*
D03*
Y1014730D02*
D03*
D38*
X608330Y989330D02*
D03*
D39*
X651510Y817880D02*
D03*
D40*
X662940Y1043940D02*
D03*
X647700Y923290D02*
D03*
X594360D02*
D03*
X669290Y967740D02*
D03*
X715010D02*
D03*
X713740Y1007110D02*
D03*
X666750D02*
D03*
D41*
X690880Y989330D02*
D03*
M02*
