G04*
G04 #@! TF.GenerationSoftware,Altium Limited,Altium Designer,24.1.2 (44)*
G04*
G04 Layer_Color=16711935*
%FSLAX44Y44*%
%MOMM*%
G71*
G04*
G04 #@! TF.SameCoordinates,CE4EC833-A4B3-435F-913A-33A71637FA1F*
G04*
G04*
G04 #@! TF.FilePolarity,Negative*
G04*
G01*
G75*
%ADD15R,1.0000X4.5600*%
%ADD29R,4.5600X1.0000*%
%ADD31R,23.2410X34.9250*%
%ADD34R,1.7500X1.7500*%
%ADD35C,1.7500*%
%ADD36C,1.1500*%
%ADD37C,2.2000*%
%ADD38R,2.2000X2.2000*%
%ADD39R,1.7500X1.7500*%
%ADD40C,1.4200*%
%ADD41C,0.6580*%
D15*
X718350Y1101090D02*
D03*
X665950D02*
D03*
D29*
X770890Y963130D02*
D03*
Y1015530D02*
D03*
D31*
X681355Y955675D02*
D03*
D34*
X647700Y923290D02*
D03*
X594360D02*
D03*
D35*
X647700Y897890D02*
D03*
Y872490D02*
D03*
X626110Y817880D02*
D03*
X600710D02*
D03*
X594360Y897890D02*
D03*
Y872490D02*
D03*
D36*
X741680Y841461D02*
D03*
Y791461D02*
D03*
D37*
X633730Y1014730D02*
D03*
Y963930D02*
D03*
X582930D02*
D03*
Y1014730D02*
D03*
D38*
X608330Y989330D02*
D03*
D39*
X651510Y817880D02*
D03*
D40*
X662940Y1043940D02*
D03*
X647700Y923290D02*
D03*
X594360D02*
D03*
X669290Y967740D02*
D03*
X715010D02*
D03*
X713740Y1007110D02*
D03*
X666750D02*
D03*
D41*
X690880Y989330D02*
D03*
M02*
