G04*
G04 #@! TF.GenerationSoftware,Altium Limited,Altium Designer,24.1.2 (44)*
G04*
G04 Layer_Color=65535*
%FSLAX44Y44*%
%MOMM*%
G71*
G04*
G04 #@! TF.SameCoordinates,CE4EC833-A4B3-435F-913A-33A71637FA1F*
G04*
G04*
G04 #@! TF.FilePolarity,Positive*
G04*
G01*
G75*
%ADD10C,0.2500*%
%ADD11C,0.2000*%
%ADD12C,0.1524*%
%ADD13C,0.2540*%
%ADD14C,0.0762*%
G36*
X708914Y1040003D02*
X711454D01*
Y1036193D01*
X708914D01*
Y1040003D01*
D02*
G37*
D10*
X693900Y1070940D02*
G03*
X693900Y1070940I-1250J0D01*
G01*
X623950Y923290D02*
G03*
X623950Y923290I-1250J0D01*
G01*
X652760Y842880D02*
G03*
X652760Y842880I-1250J0D01*
G01*
X741990Y988830D02*
G03*
X741990Y988830I-1250J0D01*
G01*
X570610Y923290D02*
G03*
X570610Y923290I-1250J0D01*
G01*
D11*
X700150Y1123890D02*
X709600D01*
X674700D02*
X684150D01*
X671200Y844390D02*
Y951390D01*
X676200Y844390D02*
Y951390D01*
X629200Y844390D02*
Y951390D01*
X676200D01*
X629200Y844390D02*
X676200D01*
X693613Y942700D02*
X711113D01*
X693560Y959730D02*
X711060D01*
X781680Y825960D02*
Y841960D01*
Y776461D02*
Y796962D01*
X701680Y776461D02*
Y796962D01*
Y825960D02*
Y841960D01*
X713180Y869460D02*
X770180Y869461D01*
X701680Y776461D02*
X781680D01*
X647550Y980080D02*
Y990580D01*
X660550Y980080D02*
Y990580D01*
X715281Y935566D02*
X731268D01*
X715281Y880534D02*
X731268D01*
X595690Y957580D02*
X620970D01*
X640080Y976690D02*
Y1001970D01*
X595690Y1021080D02*
X620970D01*
X572610Y794380D02*
X679610D01*
X572610Y789380D02*
X679610D01*
X572610Y836380D02*
X679610D01*
Y789380D02*
Y836380D01*
X572610Y789380D02*
Y836380D01*
X793690Y971880D02*
Y981330D01*
Y997330D02*
Y1006780D01*
X617860Y844390D02*
Y951390D01*
X622860Y844390D02*
Y951390D01*
X575860Y844390D02*
Y951390D01*
X622860D01*
X575860Y844390D02*
X622860D01*
D12*
X704596Y1057681D02*
Y1061974D01*
X700303Y1024382D02*
X704596D01*
X677164D02*
Y1028675D01*
Y1057681D02*
Y1061974D01*
X700303D02*
X704596D01*
Y1024382D02*
Y1028675D01*
X677164Y1024382D02*
X681457D01*
X677164Y1061974D02*
X681457D01*
X702691Y972566D02*
Y979604D01*
X679069Y972566D02*
X681154D01*
X679069Y999056D02*
Y1006094D01*
X700606D02*
X702691D01*
X679069Y972566D02*
Y979604D01*
X700606Y972566D02*
X702691D01*
Y999056D02*
Y1006094D01*
X679069D02*
X681154D01*
D13*
X709513Y1071456D02*
X707820D01*
X706973Y1070609D01*
Y1067224D01*
X707820Y1066377D01*
X709513D01*
X710359Y1067224D01*
Y1070609D01*
X709513Y1071456D01*
X712052Y1069763D02*
Y1067224D01*
X712898Y1066377D01*
X715437D01*
Y1069763D01*
X717977Y1070609D02*
Y1069763D01*
X717130D01*
X718823D01*
X717977D01*
Y1067224D01*
X718823Y1066377D01*
X721362Y1064684D02*
Y1069763D01*
X723901D01*
X724748Y1068916D01*
Y1067224D01*
X723901Y1066377D01*
X721362D01*
X726440Y1069763D02*
Y1067224D01*
X727287Y1066377D01*
X729826D01*
Y1069763D01*
X732365Y1070609D02*
Y1069763D01*
X731519D01*
X733212D01*
X732365D01*
Y1067224D01*
X733212Y1066377D01*
X740829Y1071456D02*
X742522D01*
X741675D01*
Y1066377D01*
X740829D01*
X742522D01*
X748447Y1071456D02*
X745061D01*
Y1068916D01*
X746754D01*
X745061D01*
Y1066377D01*
X666541Y825376D02*
Y829608D01*
X665695Y830455D01*
X664002D01*
X663156Y829608D01*
Y825376D01*
X661463Y826223D02*
X660616Y825376D01*
X658923D01*
X658077Y826223D01*
Y827069D01*
X659770Y828762D01*
Y829608D02*
Y830455D01*
X703618Y977685D02*
X702772Y978532D01*
X701079D01*
X700233Y977685D01*
Y974300D01*
X701079Y973453D01*
X702772D01*
X703618Y974300D01*
X705311Y977685D02*
X706158Y978532D01*
X707850D01*
X708697Y977685D01*
Y976839D01*
X707850Y975993D01*
X707004D01*
X707850D01*
X708697Y975146D01*
Y974300D01*
X707850Y973453D01*
X706158D01*
X705311Y974300D01*
X699809Y889378D02*
X698116D01*
X698962D01*
Y885146D01*
X698116Y884299D01*
X697269D01*
X696423Y885146D01*
X704041Y884299D02*
Y889378D01*
X701501Y886839D01*
X704887D01*
X714166Y1050289D02*
Y1045211D01*
X717552D01*
X719244D02*
Y1050289D01*
X722630Y1045211D01*
Y1050289D01*
X724323Y1045211D02*
Y1048596D01*
X726016Y1050289D01*
X727708Y1048596D01*
Y1045211D01*
Y1047750D01*
X724323D01*
X729401Y1045211D02*
X731094D01*
X730247D01*
Y1050289D01*
X729401Y1049443D01*
X663364Y996949D02*
Y992717D01*
X664211Y991871D01*
X665904D01*
X666750Y992717D01*
Y996949D01*
X668443Y991871D02*
X670136D01*
X669289D01*
Y996949D01*
X668443Y996103D01*
X665903Y971126D02*
X666749Y971973D01*
Y973665D01*
X665903Y974512D01*
X662517D01*
X661671Y973665D01*
Y971973D01*
X662517Y971126D01*
X661671Y966048D02*
Y969434D01*
X665056Y966048D01*
X665903D01*
X666749Y966894D01*
Y968587D01*
X665903Y969434D01*
X675236Y931334D02*
X674390Y930487D01*
Y928794D01*
X675236Y927948D01*
X678622D01*
X679468Y928794D01*
Y930487D01*
X678622Y931334D01*
X679468Y935566D02*
X674390D01*
X676929Y933026D01*
Y936412D01*
X601561Y1035049D02*
X604947Y1029971D01*
Y1035049D02*
X601561Y1029971D01*
X606640Y1032510D02*
X610025D01*
X611718Y1035049D02*
Y1029971D01*
X614257D01*
X615104Y1030817D01*
Y1031664D01*
X614257Y1032510D01*
X611718D01*
X614257D01*
X615104Y1033356D01*
Y1034203D01*
X614257Y1035049D01*
X611718D01*
X617643Y1033356D02*
X619336D01*
X620182Y1032510D01*
Y1029971D01*
X617643D01*
X616796Y1030817D01*
X617643Y1031664D01*
X620182D01*
X621875Y1029971D02*
Y1033356D01*
X624414D01*
X625260Y1032510D01*
Y1029971D01*
X630339Y1035049D02*
Y1029971D01*
X627799D01*
X626953Y1030817D01*
Y1032510D01*
X627799Y1033356D01*
X630339D01*
X730674Y1002453D02*
X729827Y1003299D01*
X728135D01*
X727288Y1002453D01*
Y999067D01*
X728135Y998221D01*
X729827D01*
X730674Y999067D01*
X735752Y1003299D02*
X732366D01*
Y1000760D01*
X734059Y1001606D01*
X734906D01*
X735752Y1000760D01*
Y999067D01*
X734906Y998221D01*
X733213D01*
X732366Y999067D01*
X553596Y799039D02*
X557828D01*
X558675Y799885D01*
Y801578D01*
X557828Y802424D01*
X553596D01*
X558675Y806656D02*
X553596D01*
X556135Y804117D01*
Y807503D01*
X755228Y1032509D02*
Y1027431D01*
X758614D01*
X762846Y1032509D02*
X761153D01*
X760306Y1031663D01*
Y1028277D01*
X761153Y1027431D01*
X762846D01*
X763692Y1028277D01*
Y1031663D01*
X762846Y1032509D01*
X613201Y825376D02*
Y829608D01*
X612355Y830455D01*
X610662D01*
X609815Y829608D01*
Y825376D01*
X608123Y826223D02*
X607276Y825376D01*
X605583D01*
X604737Y826223D01*
Y827069D01*
X605583Y827915D01*
X606430D01*
X605583D01*
X604737Y828762D01*
Y829608D01*
X605583Y830455D01*
X607276D01*
X608123Y829608D01*
D14*
X665861Y1060108D02*
X674325Y1051644D01*
X665861D02*
X674325Y1060108D01*
X665861Y1055876D02*
X674325D01*
X670093Y1051644D02*
Y1060108D01*
X706422Y1017397D02*
X697958Y1008933D01*
Y1017397D02*
X706422Y1008933D01*
X702190Y1017397D02*
Y1008933D01*
X697958Y1013165D02*
X706422D01*
M02*
